<svg width="16" height="16" xmlns="http://www.w3.org/2000/svg"><path d="M10.14.8h-3.5C5.08.8 4 1.149 3.028 1.968c-.764.673-1.22 1.65-1.22 2.615 0 1.487 1.111 3.067 3.17 3.067.198 0 .417-.021.61-.04l-.028.071c-.083.203-.161.393-.161.691 0 .58.274.938.54 1.283l.033.044-.06.004c-.85.06-2.432.17-3.588.895C.958 11.426.852 12.631.852 12.98c0 1.39 1.27 2.793 4.107 2.793 3.298 0 5.024-1.856 5.024-3.69 0-1.356-.78-2.026-1.607-2.737l-.698-.554c-.216-.182-.484-.409-.484-.83 0-.412.268-.685.505-.926l.025-.025c.754-.606 1.608-1.293 1.608-2.778 0-1.494-.915-2.266-1.354-2.637h1.161a.073.073 0 00.04-.012L10.18.943a.078.078 0 00.032-.087A.075.075 0 0010.14.8zM5.895 14.955c-2.01 0-3.361-.958-3.361-2.384 0-.931.552-1.608 1.64-2.01.872-.3 1.997-.314 2.008-.314.19 0 .286 0 .438.02 1.407 1.02 2.084 1.557 2.084 2.579 0 1.3-1.077 2.109-2.809 2.109zm7.23-9.114c.042 0 .076.035.076.077v1.875h1.845c.042 0 .075.035.075.078v.82a.076.076 0 01-.075.077H13.2v1.887a.077.077 0 01-.076.077h-.793a.077.077 0 01-.076-.077V8.768H10.42a.077.077 0 01-.076-.077v-.82c0-.043.034-.078.076-.078h1.835V5.918c0-.042.034-.077.076-.077zM5.246 1.538c1.55 0 2.406 2.124 2.406 3.593 0 .231 0 .936-.477 1.425-.32.327-.843.546-1.299.546-1.687 0-2.387-2.262-2.387-3.474 0-.616.137-1.089.42-1.446a1.756 1.756 0 011.337-.644z" fill="#8392A6" fill-rule="evenodd"/></svg>