<svg width="16" height="13" xmlns="http://www.w3.org/2000/svg"><path d="M15.75 1.497a6.587 6.587 0 01-1.826.478A3.078 3.078 0 0015.322.297c-.616.348-1.296.6-2.02.737A3.243 3.243 0 0010.98.075C9.225.075 7.8 1.435 7.8 3.11c0 .238.028.47.082.692C5.241 3.675 2.898 2.466 1.33.63 1.056 1.078.9 1.6.9 2.156c0 1.053.562 1.982 1.414 2.526A3.296 3.296 0 01.874 4.3v.038c0 1.47 1.096 2.697 2.55 2.976a3.365 3.365 0 01-.838.107c-.205 0-.404-.02-.599-.057.405 1.207 1.58 2.084 2.97 2.108a6.575 6.575 0 01-3.949 1.298c-.256 0-.51-.015-.758-.042a9.3 9.3 0 004.874 1.366c5.85 0 9.046-4.625 9.046-8.636l-.01-.393a6.2 6.2 0 001.59-1.569z" fill="#8392A6" fill-rule="evenodd"/></svg>